<svg xmlns="http://www.w3.org/2000/svg" viewBox="0 0 67.67 29.58"><defs><style>.cls-1{fill:#081a28;}.cls-2{fill:#fff;}</style></defs><g id="Layer_2" data-name="Layer 2"><g id="logo"><path class="cls-1" d="M34.67,28.37c4.12-.14,15.08.61,15.41.59s1,.58,1,.58l-16.78-.65h-.31A1,1,0,0,1,34.67,28.37Z"/><path class="cls-1" d="M24.06,26.08a1.81,1.81,0,0,1,1.69-.85c1.17.08,25,.43,26.69.85,0,0,.66-.07,1.53,1.05Z"/><path class="cls-1" d="M16.17,2.78C10.46-1.3,3.73,17.16,9.92,17.88c3,.27,5.47-2.64,6.18-6.81,0-.08,0-.16,0-.24.68,0,3.43,0,3.43,0C18.79,17,16.8,27.71,6.81,27.42c-4.2-.13-5.33-2.94-4.6-4.92,1.07-2.91,66.42-1.35,65.45,2.21C57.17,23.67,3.15,22.2,7,24.58c2,1.22,6.73-3.68,7.91-8a6.83,6.83,0,0,1-4.24,3.07c-5.25.81-8.94-3.34-6.95-9.3C6.26,2.73,12.43,1,16.3,1.39c2,.22,4.11,1.47,4,3.85-.07,1.25-6.05,1.24-9.94-.09S2.27,0,4.88,0C5.8,1.06,9.5,3.81,11,4.23,16.67,5.79,17.93,4,16.17,2.78Z"/><path class="cls-1" d="M19.53,20c.39,0,.84-.19,1.15-1.94l1.54-8.68c.29-1.75-.1-1.83-.49-1.83V7.22h4.91l-.11.31c-.39,0-.83.08-1.14,1.86L23.87,18a5.06,5.06,0,0,0-.1,1h1.3a3.4,3.4,0,0,0,3.24-2.56h.55l-.65,3.84H19.42Z"/><path class="cls-1" d="M29.1,20c.39,0,.84-.19,1.18-1.94l1.51-8.68c.32-1.75-.1-1.83-.49-1.83V7.22h4.94l-.13.31c-.39,0-.84.08-1.15,1.86L33.44,18c-.31,1.77.08,2,.47,2v.31H29Z"/><path class="cls-1" d="M34.86,20c.39,0,.83-.19,1.15-1.94l1.54-8.68c.29-1.75-.11-1.83-.5-1.83l0-.31h5.59c2.59,0,4.13,2.93,3.5,6.53s-3.19,6.51-5.75,6.54H34.73Zm4.42-1c1.49,0,3.11-2.35,3.63-5.26S42.62,8.5,41.13,8.5h-.29L39,19Z"/><path class="cls-1" d="M45.89,20c.4,0,.84-.19,1.16-1.94l1.54-8.68c.28-1.75-.11-1.83-.5-1.83l0-.31H56.3l-.47,2.67h-.55s.34-1.34-1-1.39H51.88L51,13.44h.52A1.54,1.54,0,0,0,53,12.06h.55l-.71,4h-.55a1,1,0,0,0-1-1.39h-.52L50.05,19h1.36a3.43,3.43,0,0,0,3.27-2.56h.55l-.66,3.84H45.76Z"/><path class="cls-2" d="M32.66,28.41c4.12-.15,15.08.6,15.42.59s1,.58,1,.58l-16.78-.66h-.31A.91.91,0,0,1,32.66,28.41Z"/><path class="cls-2" d="M22.05,26.11a1.81,1.81,0,0,1,1.69-.85c1.18.08,25.05.43,26.69.85,0,0,.67-.07,1.54,1.05Z"/><path class="cls-2" d="M14.17,2.82C8.46-1.27,1.72,17.19,7.92,17.91c3,.27,5.46-2.64,6.17-6.81,0-.08,0-.16,0-.24.67,0,3.42,0,3.42,0C16.78,17,14.79,27.75,4.81,27.45.6,27.32-.52,24.51.21,22.54c1.07-2.92,66.41-1.35,65.44,2.2-10.49-1-64.5-2.51-60.64-.13,2,1.22,6.73-3.68,7.9-8a6.85,6.85,0,0,1-4.23,3.08c-5.26.8-8.94-3.34-7-9.3C4.26,2.76,10.43,1,14.3,1.43c2,.21,4.1,1.47,4,3.85-.06,1.24-6,1.24-9.94-.1S.27.06,2.88,0C3.79,1.1,7.5,3.85,9,4.27,14.66,5.83,15.92,4.07,14.17,2.82Z"/><path class="cls-2" d="M17.52,20c.39,0,.84-.18,1.15-1.93L20.22,9.4c.28-1.76-.11-1.83-.5-1.83V7.25h4.91l-.1.32c-.39,0-.84.07-1.15,1.85l-1.52,8.63a6.07,6.07,0,0,0-.1,1h1.31a3.42,3.42,0,0,0,3.24-2.56h.55l-.66,3.84H17.42Z"/><path class="cls-2" d="M27.1,20c.39,0,.83-.18,1.17-1.93L29.79,9.4c.31-1.76-.11-1.83-.5-1.83V7.25h4.94l-.13.32c-.39,0-.83.07-1.15,1.85l-1.51,8.63c-.32,1.78.07,2,.47,2v.31H27Z"/><path class="cls-2" d="M32.85,20c.39,0,.84-.18,1.15-1.93L35.54,9.4c.29-1.76-.1-1.83-.49-1.83l0-.32h5.6c2.58,0,4.13,2.93,3.5,6.54s-3.19,6.51-5.75,6.53H32.72Zm4.42-1c1.49,0,3.11-2.35,3.63-5.25s-.28-5.26-1.77-5.26h-.29L37,19Z"/><path class="cls-2" d="M43.89,20c.39,0,.83-.18,1.15-1.93L46.58,9.4c.29-1.76-.1-1.83-.5-1.83l0-.32h8.23l-.47,2.67h-.55s.34-1.33-1-1.39h-2.4l-.87,5h.53A1.55,1.55,0,0,0,51,12.09h.54l-.7,4.05h-.55a1,1,0,0,0-1-1.38h-.52L48.05,19h1.36a3.41,3.41,0,0,0,3.26-2.56h.55l-.65,3.84H43.76Z"/></g></g></svg>